<svg xmlns="http://www.w3.org/2000/svg" xmlns:xlink="http://www.w3.org/1999/xlink" xmlns:lucid="lucid" width="1661.31" height="1784.5"><g transform="translate(1720.8148148148148 440.5)" lucid:page-tab-id="0_0"><path d="M-2000-500H0v2000h-2000z" fill="#fff"/><path d="M-700-139v9.8m0 9.8v19.58m0 9.8v19.6m0 9.78v19.6m0 9.8v19.58m0 9.8v19.6m0 9.78v19.6m0 9.8V76.5m0 9.8v19.6m0 9.78v19.6m0 9.8v19.58m0 9.8v9.8l.1 1.17.27 1.14.45 1.1.62 1 .76.9.9.76 1 .62 1.1.45 1.14.28 1.18.1 1.18.08 1.14.28 1.1.45 1 .6.9.77.76.9.62 1 .45 1.1.28 1.14.1 1.2v10.2m0 10.22v20.42m0 10.22v20.42m0 10.22v20.42m0 10.2v20.44m0 10.2v20.44m0 10.2v20.44m0 10.2V424m0 10.2v20.44m0 10.2v20.44m0 10.2v20.44m0 10.2v20.44m0 10.2v20.44m0 10.2v20.44m0 10.2v20.44m0 10.2v20.44m0 10.2v20.44m0 10.2v20.44m0 10.2v20.44m0 10.2v20.44m0 10.2v20.44m0 10.2v20.43m0 10.22v20.43m0 10.2V904l-.1 1.18-.28 1.15-.45 1.08-.62 1.02-.76.9-.9.76-1 .62-1.1.45-1.14.28-1.18.1-1.18.08-1.14.3-1.1.44-1 .62-.9.76-.76.9-.62 1-.45 1.1-.28 1.14-.1 1.18v9.75m0 9.75v19.5m0 9.77v19.5m0 9.76v19.5m0 9.77v19.5m0 9.77v19.5m0 9.76v19.5m0 9.77v19.5m0 9.76v19.52m0 9.76v19.5m0 9.77v19.5m0 9.76v19.52m0 9.76v19.5m0 9.76v9.76" stroke="#333" fill="none"/><path d="M-699.5-139h-1v-.5h1z" stroke="#333" stroke-width=".05" fill="#333"/><path d="M-700 1299.5v.5" stroke="#333" fill="none"/><path d="M-720-94a6 6 0 0 1 6-6h28a6 6 0 0 1 6 6v1348a6 6 0 0 1-6 6h-28a6 6 0 0 1-6-6z" stroke="#3a414a" fill="#fff"/><path d="M-740 126a6 6 0 0 1 6-6h88a6 6 0 0 1 6 6v8a14.48 14.48 0 0 1-4.24 10.24l-1.52 1.52A14.48 14.48 0 0 1-656 150h-78a6 6 0 0 1-6-6z" fill="#fff"/><path d="M-640 120v20l-10 10h-90" stroke="#3a414a" fill="none"/><path d="M-740 126a6 6 0 0 1 6-6h648a6 6 0 0 1 6 6v1088a6 6 0 0 1-6 6h-648a6 6 0 0 1-6-6zM-740 430h20m15 0h20m15 0h20m15 0h20m15 0h20m15 0h20m15 0h20m15 0h20m15 0h20m15 0h20m15 0h20m15 0h20m15 0h20m15 0h20m15 0h20m15 0h20m15 0h20m15 0h20m15 0h20" stroke="#3a414a" fill="none"/><use xlink:href="#a" transform="matrix(1,0,0,1,-732,120) translate(0 19.444444444444443)"/><use xlink:href="#b" transform="matrix(1,0,0,1,-728,158) translate(0 19.444444444444443)"/><use xlink:href="#c" transform="matrix(1,0,0,1,-728,158) translate(89.93827160493827 19.444444444444443)"/><use xlink:href="#d" transform="matrix(1,0,0,1,-728,158) translate(109.07407407407406 19.444444444444443)"/><use xlink:href="#e" transform="matrix(1,0,0,1,-728,158) translate(199.19753086419752 19.444444444444443)"/><path d="M-1290.08-371.34a8 8 0 0 1 8-8H-1108a8 8 0 0 1 8 8v66a8 8 0 0 1-8 8h-174.08a8 8 0 0 1-8-8z" stroke="#000" fill="#fff"/><use xlink:href="#f" transform="matrix(1,0,0,1,-1282.075238129847,-371.3442622956422) translate(34.660493827160494 36.55555555555556)"/><path d="M-795.04-212a8 8 0 0 1 8-8h174.08a8 8 0 0 1 8 8v64a8 8 0 0 1-8 8h-174.08a8 8 0 0 1-8-8z" stroke="#000" fill="#fff"/><use xlink:href="#g" transform="matrix(1,0,0,1,-787.0376190655361,-212) translate(52.3395061728395 35.55555555555556)"/><path d="M-1177.6-179.34h4.88m4.9 0h9.77m4.9 0h9.78m4.9 0h9.78m4.9 0h9.78m4.9 0h9.78m4.9 0h9.77m4.9 0h9.78m4.9 0h9.78m4.9 0h9.78m4.9 0h9.78m4.9 0h9.77m4.9 0h9.8m4.88 0H-981.94m4.88 0h9.76m4.88 0h9.77m4.88 0h9.76m4.87 0h9.76m4.9 0h9.75m4.88 0h9.76m4.88 0h9.77m4.88 0h9.76m4.9 0h9.76m4.88 0h9.76m4.88 0h9.77m4.88 0h9.76m4.87 0h4.88" stroke="#3a414a" fill="none"/><path d="M-1177.6-178.84h-.5v-1h.5z" stroke="#3a414a" stroke-width=".05" fill="#3a414a"/><path d="M-813.74-169.16l17.22-10.18-17.22-10.18" stroke="#3a414a" fill="none"/><use xlink:href="#h" transform="matrix(1,0,0,1,-1136.0603521231271,-204.67753631745205) translate(0 14.222222222222223)"/><use xlink:href="#i" transform="matrix(1,0,0,1,-1136.0603521231271,-204.67753631745205) translate(224.64197530864203 14.222222222222223)"/><path d="M-1177.6-83H-736.9" stroke="#3a414a" fill="none"/><path d="M-1177.6-82.5h-.5v-1h.5z" stroke="#3a414a" stroke-width=".05" fill="#3a414a"/><path d="M-722.12-83l-14.26 4.64v-9.28z" stroke="#3a414a" fill="#3a414a"/><use xlink:href="#j" transform="matrix(1,0,0,1,-988.1958981787053,-108.33333327834298) translate(0 14.222222222222223)"/><path d="M-359.75 148a8 8 0 0 1 8-8h204a8 8 0 0 1 8 8v64a8 8 0 0 1-8 8h-204a8 8 0 0 1-8-8z" stroke="#000" fill="#fff"/><use xlink:href="#k" transform="matrix(1,0,0,1,-351.7500102128953,148) translate(-1.1851851851852189 35.55555555555556)"/><path d="M-249.75 221v4.82m0 4.82v9.65m0 4.8v9.65m0 4.83v9.64m0 4.82v9.65m0 4.8v9.65m0 4.82v9.65m0 4.82v9.64m0 4.82v9.65m0 4.82V356m0 4.84v9.64m0 4.82V380.18l-.02.02h-.02v.03h-.04v.02h-.09l-.02.02v.02h-.03v.04l-.02.02v4.36m0 4.35v8.7m0 4.34v8.7m0 4.35v4.35" stroke="#3a414a" fill="none"/><path d="M-249.25 221h-1v-.5h1z" stroke="#3a414a" stroke-width=".05" fill="#3a414a"/><path d="M-250 419.5v.5M-679 263.12h392.62" stroke="#3a414a" fill="none"/><path d="M-679 263.62h-.5v-1h.5z" stroke="#3a414a" stroke-width=".05" fill="#3a414a"/><path d="M-271.62 263.12l-14.26 4.64v-9.27z" stroke="#3a414a" fill="#3a414a"/><use xlink:href="#l" transform="matrix(1,0,0,1,-542.7253476823622,237.78786259966628) translate(0 14.222222222222223)"/><use xlink:href="#m" transform="matrix(1,0,0,1,-542.7253476823622,237.78786259966628) translate(112.3456790123457 14.222222222222223)"/><path d="M-663.12 301.75h4.83m4.84 0h9.66m4.83 0h9.66m4.82 0h9.66m4.83 0h9.67m4.83 0h9.66m4.83 0h9.65m4.83 0h9.66m4.83 0h9.66m4.83 0h9.66m4.83 0h9.66m4.84 0h9.66m4.83 0h9.66m4.82 0H-469.9m4.88 0h9.72m4.87 0h9.72m4.85 0h9.73m4.86 0h9.73m4.86 0h9.73m4.86 0h9.73m4.86 0h9.74m4.86 0h9.73m4.86 0h9.72m4.86 0h9.73m4.87 0h9.72m4.86 0h9.72m4.87 0h9.72m4.87 0h4.86" stroke="#3a414a" fill="none"/><path d="M-677.88 301.75l14.26-4.64v9.28z" stroke="#3a414a" fill="#3a414a"/><path d="M-270 302.25h-.5v-1h.5z" stroke="#3a414a" stroke-width=".05" fill="#3a414a"/><use xlink:href="#n" transform="matrix(1,0,0,1,-521.540143181908,276.414155835835) translate(0 14.222222222222223)"/><use xlink:href="#o" transform="matrix(1,0,0,1,-521.540143181908,276.414155835835) translate(56.14814814814816 14.222222222222223)"/><path d="M-679 350.32h392.62" stroke="#3a414a" fill="none"/><path d="M-679 350.82h-.5v-1h.5z" stroke="#3a414a" stroke-width=".05" fill="#3a414a"/><path d="M-271.62 350.32l-14.26 4.64v-9.27z" stroke="#3a414a" fill="#3a414a"/><use xlink:href="#p" transform="matrix(1,0,0,1,-602.7746867926113,324.98987965792605) translate(0 14.222222222222223)"/><use xlink:href="#q" transform="matrix(1,0,0,1,-602.7746867926113,324.98987965792605) translate(99.45679012345678 14.222222222222223)"/><use xlink:href="#r" transform="matrix(1,0,0,1,-602.7746867926113,324.98987965792605) translate(168.39506172839506 14.222222222222223)"/><use xlink:href="#s" transform="matrix(1,0,0,1,-602.7746867926113,324.98987965792605) translate(178.2716049382716 14.222222222222223)"/><use xlink:href="#t" transform="matrix(1,0,0,1,-602.7746867926113,324.98987965792605) translate(232.44444444444446 14.222222222222223)"/><path d="M-360 577.34a8 8 0 0 1 8-8h204a8 8 0 0 1 8 8v64a8 8 0 0 1-8 8h-204a8 8 0 0 1-8-8z" stroke="#000" fill="#fff"/><use xlink:href="#u" transform="matrix(1,0,0,1,-352,577.3442291794593) translate(47.185185185185176 35.55555555555556)"/><path d="M-250 650.34v4.86m0 4.85v9.72m0 4.85v9.7m0 4.87v9.7m0 4.86v9.7m0 4.86v9.7m0 4.87v9.7m0 4.86v9.7m0 4.86v9.7m0 4.87v9.7m0 4.86v9.7m0 4.86v9.7m0 4.87v9.7m0 4.86v9.7m0 4.86v9.7m0 4.87v4.84" stroke="#3a414a" fill="none"/><path d="M-249.5 650.36h-1v-.52h1z" stroke="#3a414a" stroke-width=".05" fill="#3a414a"/><path d="M-250 868.83v.5M-679 696.4h392.12" stroke="#3a414a" fill="none"/><path d="M-679 696.9h-.5v-1h.5z" stroke="#3a414a" stroke-width=".05" fill="#3a414a"/><path d="M-272.12 696.4l-14.26 4.64v-9.27z" stroke="#3a414a" fill="#3a414a"/><use xlink:href="#l" transform="matrix(1,0,0,1,-542.9755647360785,671.0715357264309) translate(0 14.222222222222223)"/><use xlink:href="#m" transform="matrix(1,0,0,1,-542.9755647360785,671.0715357264309) translate(112.3456790123457 14.222222222222223)"/><path d="M-663.12 735.03h4.83m4.83 0h9.65m4.82 0h9.65m4.82 0h9.65m4.82 0h9.65m4.8 0h9.66m4.82 0h9.65m4.82 0h9.65m4.82 0h9.65m4.82 0h9.64m4.82 0h9.65m4.84 0h9.64m4.83 0h9.65m4.83 0h9.68m4.85 0h9.73m4.86 0h9.7m4.86 0h9.7m4.87 0h9.7m4.87 0h9.7m4.87 0h9.72m4.84 0h9.72m4.85 0h9.73m4.86 0h9.7m4.86 0h9.7m4.87 0h9.7m4.87 0h9.7m4.87 0h9.72m4.84 0h4.86" stroke="#3a414a" fill="none"/><path d="M-677.88 735.03l14.26-4.63v9.27z" stroke="#3a414a" fill="#3a414a"/><path d="M-270.5 735.53h-.5v-1h.5z" stroke="#3a414a" stroke-width=".05" fill="#3a414a"/><use xlink:href="#n" transform="matrix(1,0,0,1,-521.7903270712584,709.6978371863145) translate(0 14.222222222222223)"/><use xlink:href="#o" transform="matrix(1,0,0,1,-521.7903270712584,709.6978371863145) translate(56.14814814814816 14.222222222222223)"/><path d="M-679 783.6h392.12" stroke="#3a414a" fill="none"/><path d="M-679 784.1h-.5v-1h.5z" stroke="#3a414a" stroke-width=".05" fill="#3a414a"/><path d="M-272.12 783.6l-14.26 4.64v-9.27z" stroke="#3a414a" fill="#3a414a"/><use xlink:href="#p" transform="matrix(1,0,0,1,-603.0248529014151,758.2735519051813) translate(0 14.222222222222223)"/><use xlink:href="#q" transform="matrix(1,0,0,1,-603.0248529014151,758.2735519051813) translate(99.45679012345678 14.222222222222223)"/><use xlink:href="#r" transform="matrix(1,0,0,1,-603.0248529014151,758.2735519051813) translate(168.39506172839506 14.222222222222223)"/><use xlink:href="#s" transform="matrix(1,0,0,1,-603.0248529014151,758.2735519051813) translate(178.2716049382716 14.222222222222223)"/><use xlink:href="#t" transform="matrix(1,0,0,1,-603.0248529014151,758.2735519051813) translate(232.44444444444446 14.222222222222223)"/><path d="M-734.92 453.22a6 6 0 0 1 6-6h88a6 6 0 0 1 6 6v8a14.48 14.48 0 0 1-4.25 10.25l-1.5 1.5a14.48 14.48 0 0 1-10.25 4.25h-78a6 6 0 0 1-6-6z" fill="#fff"/><path d="M-634.92 447.22v20l-10 10h-90" stroke="#3a414a" fill="none"/><path d="M-734.92 453.22a6 6 0 0 1 6-6h637.84a6 6 0 0 1 6 6v744.37a6 6 0 0 1-6 6h-637.84a6 6 0 0 1-6-6zM-734.92 874.34h20m15 0h20m15 0h20m15 0h20m15 0h20m15 0h20m15 0h20m15 0h20m15 0h20m15 0h20m15 0h20m15 0h20m15 0h20m15 0h20m15 0h20m15 0h20m15 0h20m15 0h20m15 0h19.84" stroke="#3a414a" fill="none"/><use xlink:href="#a" transform="matrix(1,0,0,1,-726.9230769230769,447.2230170582472) translate(0 19.444444444444443)"/><use xlink:href="#b" transform="matrix(1,0,0,1,-722.9230769230769,485.2230170582472) translate(0 19.444444444444443)"/><use xlink:href="#c" transform="matrix(1,0,0,1,-722.9230769230769,485.2230170582472) translate(89.93827160493827 19.444444444444443)"/><use xlink:href="#v" transform="matrix(1,0,0,1,-722.9230769230769,485.2230170582472) translate(109.07407407407406 19.444444444444443)"/><use xlink:href="#w" transform="matrix(1,0,0,1,-722.9230769230769,882.3442291794593) translate(0 19.444444444444443)"/><path d="M-360.5 907.34a8 8 0 0 1 8-8h204a8 8 0 0 1 8 8v64a8 8 0 0 1-8 8h-204a8 8 0 0 1-8-8z" stroke="#000" fill="#fff"/><use xlink:href="#x" transform="matrix(1,0,0,1,-352.4999795742095,907.3442291794594) translate(43.1358024691358 35.55555555555556)"/><path d="M-250.5 980.34v5.15m0 5.14v10.3m0 5.14v10.3m0 5.15v10.3m0 5.14v10.3m0 5.15v10.3m0 5.14v10.3m0 5.15v10.3m0 5.15v10.3m0 5.15v10.44m0 5.3v10.6m0 5.3v10.6m0 5.3v10.6m0 5.3v10.6m0 5.3v5.3" stroke="#3a414a" fill="none"/><path d="M-250 980.36h-1v-.52h1z" stroke="#3a414a" stroke-width=".05" fill="#3a414a"/><path d="M-250.5 1198.83v.5M-679 1026.4H-288.2" stroke="#3a414a" fill="none"/><path d="M-679 1026.9h-.5v-1h.5z" stroke="#3a414a" stroke-width=".05" fill="#3a414a"/><path d="M-273.43 1026.4l-14.27 4.64v-9.27z" stroke="#3a414a" fill="#3a414a"/><use xlink:href="#l" transform="matrix(1,0,0,1,-543.6309436554529,1001.0715929640209) translate(0 14.222222222222223)"/><use xlink:href="#m" transform="matrix(1,0,0,1,-543.6309436554529,1001.0715929640209) translate(112.3456790123457 14.222222222222223)"/><path d="M-663.12 1065.03h5.2m5.22 0h10.4m5.22 0h10.42m5.2 0h10.42m5.2 0h10.42m5.2 0h10.42m5.2 0h10.42m5.2 0h10.42m5.2 0h10.43m5.2 0h10.42m5.2 0h10.4m5.22 0h10.4m5.22 0h10.05m4.83 0h9.68m4.85 0h9.7m4.83 0h9.68m4.84 0h9.68m4.85 0h9.68m4.85 0h9.68m4.85 0h9.68m4.84 0h9.68m4.84 0h9.7m4.83 0h9.68m4.84 0h9.7m4.83 0h9.68m4.84 0h9.7m4.83 0h4.84" stroke="#3a414a" fill="none"/><path d="M-677.88 1065.03l14.26-4.63v9.27z" stroke="#3a414a" fill="#3a414a"/><path d="M-271.8 1065.53h-.52v-1h.5z" stroke="#3a414a" stroke-width=".05" fill="#3a414a"/><use xlink:href="#n" transform="matrix(1,0,0,1,-522.4457087155212,1039.6979027782163) translate(0 14.222222222222223)"/><use xlink:href="#o" transform="matrix(1,0,0,1,-522.4457087155212,1039.6979027782163) translate(56.14814814814816 14.222222222222223)"/><path d="M-679 1113.6h390.8" stroke="#3a414a" fill="none"/><path d="M-679 1114.1h-.5v-1h.5z" stroke="#3a414a" stroke-width=".05" fill="#3a414a"/><path d="M-273.43 1113.6l-14.26 4.64v-9.27z" stroke="#3a414a" fill="#3a414a"/><use xlink:href="#p" transform="matrix(1,0,0,1,-603.6800395149141,1088.273648287542) translate(0 14.222222222222223)"/><use xlink:href="#q" transform="matrix(1,0,0,1,-603.6800395149141,1088.273648287542) translate(99.45679012345678 14.222222222222223)"/><use xlink:href="#r" transform="matrix(1,0,0,1,-603.6800395149141,1088.273648287542) translate(168.39506172839506 14.222222222222223)"/><use xlink:href="#s" transform="matrix(1,0,0,1,-603.6800395149141,1088.273648287542) translate(178.2716049382716 14.222222222222223)"/><use xlink:href="#t" transform="matrix(1,0,0,1,-603.6800395149141,1088.273648287542) translate(232.44444444444446 14.222222222222223)"/><path d="M-1577.42-407.42c0 6.95-5.63 12.58-12.58 12.58s-12.58-5.63-12.58-12.58S-1596.95-420-1590-420s12.58 5.63 12.58 12.58z" stroke="#3a414a" fill="#fff"/><path d="M-1590-394.84v29.23a18.1 18.1 0 0 0 3.6 10.8l26.4 35.46m-30-40.27l-30 40.26m0-62.9h60" stroke="#3a414a" fill="none"/><path d="M-1620-414a6 6 0 0 1 6-6h48a6 6 0 0 1 6 6v110.66a6 6 0 0 1-6 6h-48a6 6 0 0 1-6-6z" fill="none"/><use xlink:href="#y" transform="matrix(1,0,0,1,-1700,-319.3442622956422) translate(0.18518518518519045 17.77777777777778)"/><use xlink:href="#z" transform="matrix(1,0,0,1,-1700,-319.3442622956422) translate(53.14814814814815 17.77777777777778)"/><path d="M-1590-358.27v5m0 5.02v10m0 5.02v10.02m0 5v10m0 5.02v10.02m0 5v10.03m0 5v10.02m0 5v10.02m0 5v10.02m0 5v10.03m0 5V-203m0 5v10.02m0 5v10.02m0 5v10.03m0 5v10.02m0 5v10.02m0 5v10.02m0 5v10.03m0 5v10.02m0 5v10.02m0 5v10.03m0 5v10.02m0 5v10.03m0 5v10.02m0 5V7.36m0 5v10.02m0 5V37.4m0 5v10.02m0 5v10.03m0 5v10.02m0 5V97.5m0 5v10.03m0 5v10.02m0 5v10.03m0 5v10.02m0 5v10.03m0 5v10.02m0 5v10.03m0 5v10.02m0 5v10.03m0 5v10.02m0 5v10.03m0 5v10.03m0 5v10.03m0 5v10.03m0 5v10.02m0 5v10.03m0 5.02v10m0 5.02v10.02m0 5V383m0 5v10.03m0 5.02v10m0 5.02v10.02m0 5v10.02m0 5v10.03m0 5.02v10m0 5.02v10.02m0 5v10.03m0 5v10m0 5.02v10.02m0 5v10.02m0 5v10.03m0 5v10m0 5.02v10.02m0 5v10.02m0 5v10.03m0 5v10m0 5.02v10.02m0 5v10.03m0 5v10.02m0 5v10.02m0 5v10.02m0 5v10.03m0 5v10.02m0 5v10.02m0 5v10.02m0 5v10.03m0 5v10.02m0 5v10.02m0 5v10.02m0 5v10.03m0 5v10.03m0 5v10.02m0 5v10.03m0 5v10.02m0 5v10.03m0 5v10.02m0 5v10.03m0 5v10.02m0 5V984m0 5v10.02m0 5v10.03m0 5v10.03m0 5v10.02m0 5v10.03m0 5v10.02m0 5v10.03m0 5v10.02m0 5v10.03m0 5v10.02m0 5v10.03m0 5v10.02m0 5v10.03m0 5v10.03m0 5v10.02m0 5v10.03m0 5v10.03m0 5v10.03m0 5v10.02m0 5v5.02M-1590 1279.5v.5M-1195.04-296.34v5m0 5v10m0 5v10m0 5.02v10m0 5v10m0 5v10.02m0 5v10m0 5v10.02m0 5v10m0 5v10m0 5v10.02m0 5v10m0 5v10.02m0 5v10m0 5v10m0 5v10.02m0 5v10m0 5v10.02m0 5v10m0 5v10m0 5V8.83m0 5v10m0 5v10.02m0 5v10m0 5v10m0 5v10.02m0 5v10m0 5v10.02m0 5v10m0 5v10m0 5v10.02m0 5v10m0 5v10.02m0 5v10m0 5v10m0 5v10.02m0 5v10m0 5v10.02m0 5v10m0 5v10m0 5.02v10m0 5v10m0 5V339m0 5v10m0 5v10m0 5v10.02m0 5v10m0 5v10.02m0 5v10m0 5v10m0 5v10.02m0 5v10m0 5v10.02m0 5v10m0 5v10m0 5v10.02m0 5v10m0 5v10.02m0 5v10m0 5v10m0 5v10.02m0 5v10m0 5v10.02m0 5v10m0 5v10m0 5.02v10m0 5v10m0 5v10.02m0 5v10m0 5v10m0 5.02v10m0 5v10m0 5v10.02m0 5v10m0 5v10m0 5.02v10m0 5v10m0 5v10.02m0 5v10m0 5v10m0 5.02v10m0 5v10m0 5v10.02m0 5v10m0 5v10m0 5.02v10m0 5v10m0 5v10.02m0 5v10m0 5v10m0 5.02v10m0 5v10m0 5v10.02m0 5v10m0 5v10m0 5.02v10m0 5v10m0 5v10.02m0 5v10m0 5v10m0 5.02v10m0 5v10m0 5v10.02m0 5v10m0 5v10m0 5.02v5" stroke="#3a414a" fill="none"/><path d="M-1194.54-296.33h-1v-.5h1z" stroke="#3a414a" stroke-width=".05" fill="#3a414a"/><path d="M-1195.04 1279.5v.5M-1235.5-213h-354" stroke="#3a414a" fill="none"/><path d="M-1220.73-213l-14.27 4.63v-9.27z" stroke="#3a414a" fill="#3a414a"/><path d="M-1589.5-213h-.5" stroke="#3a414a" fill="none"/><use xlink:href="#A" transform="matrix(1,0,0,1,-1471.0755095343668,-209.00199999999973) translate(0 14.222222222222223)"/><use xlink:href="#B" transform="matrix(1,0,0,1,-1471.0755095343668,-209.00199999999973) translate(67.01234567901236 14.222222222222223)"/><path d="M-721 20h-5m-4.98 0h-10m-4.98 0h-9.98m-5 0h-9.97m-5 0h-10m-4.98 0h-9.98m-5 0h-9.98m-5 0h-9.97m-5 0h-9.98m-5 0h-9.98m-5 0h-9.97m-5 0h-9.98m-5 0h-9.98m-5 0h-9.98m-5 0h-9.97m-5 0h-9.97m-5 0h-9.98m-5 0h-9.97m-5 0h-9.98m-5 0h-9.97m-5 0h-9.97m-5 0h-9.98m-5 0h-9.97m-5 0h-9.98m-5 0h-9.97m-5 0h-9.97m-5 0h-9.98m-5 0h-9.97m-4.98 0h-10m-4.98 0H-1160.23m-4.98 0h-9.97m-4.98 0h-9.96m-5 0h-9.96m-4.98 0h-9.96m-4.98 0h-9.96m-4.98 0h-9.96m-4.98 0h-9.96m-4.98 0h-9.96m-4.98 0h-9.97m-5 0h-9.95m-4.98 0h-9.96m-4.97 0h-9.96m-4.98 0h-9.97m-4.98 0h-9.96m-5 0h-9.95m-5 0h-9.95m-4.98 0h-9.96m-4.98 0h-9.96m-4.98 0h-9.96m-4.98 0h-9.96m-4.98 0h-9.97m-5 0h-9.95m-4.98 0h-9.96m-4.97 0h-9.96m-4.98 0h-9.97m-4.98 0h-9.96m-5 0h-9.95m-5 0h-4.97" stroke="#3a414a" fill="none"/><path d="M-720.5 20.5h-.5v-1h.5z" stroke="#3a414a" stroke-width=".05" fill="#3a414a"/><path d="M-1588.38 20l14.26-4.64v9.27z" stroke="#3a414a" fill="#3a414a"/><g><use xlink:href="#C" transform="matrix(1,0,0,1,-1257.29939222638,23.99899923987581) translate(0 14.222222222222223)"/><use xlink:href="#D" transform="matrix(1,0,0,1,-1257.29939222638,23.99899923987581) translate(68.0493827160494 14.222222222222223)"/><use xlink:href="#E" transform="matrix(1,0,0,1,-1257.29939222638,23.99899923987581) translate(156.79012345679016 14.222222222222223)"/></g><path d="M-736.88 61.6h-852.62" stroke="#3a414a" fill="none"/><path d="M-722.12 61.6l-14.26 4.63v-9.27z" stroke="#3a414a" fill="#3a414a"/><path d="M-1589.5 61.6h-.5" stroke="#3a414a" fill="none"/><g><use xlink:href="#A" transform="matrix(1,0,0,1,-1228.608037479428,65.59799861184048) translate(0 14.222222222222223)"/><use xlink:href="#F" transform="matrix(1,0,0,1,-1228.608037479428,65.59799861184048) translate(67.01234567901236 14.222222222222223)"/><use xlink:href="#G" transform="matrix(1,0,0,1,-1228.608037479428,65.59799861184048) translate(92.64197530864199 14.222222222222223)"/></g><path d="M-736.88 107.2h-852.62" stroke="#3a414a" fill="none"/><path d="M-722.12 107.2l-14.26 4.63v-9.27z" stroke="#3a414a" fill="#3a414a"/><path d="M-1589.5 107.2h-.5" stroke="#3a414a" fill="none"/><g><use xlink:href="#H" transform="matrix(1,0,0,1,-1248.8302543316363,111.19799910819573) translate(0 14.222222222222223)"/><use xlink:href="#I" transform="matrix(1,0,0,1,-1248.8302543316363,111.19799910819573) translate(50.271604938271615 14.222222222222223)"/><use xlink:href="#J" transform="matrix(1,0,0,1,-1248.8302543316363,111.19799910819573) translate(124.14814814814818 14.222222222222223)"/><use xlink:href="#K" transform="matrix(1,0,0,1,-1248.8302543316363,111.19799910819573) translate(145.7777777777778 14.222222222222223)"/></g><path d="M-269.5 246a6 6 0 0 1 6-6h28a6 6 0 0 1 6 6v108a6 6 0 0 1-6 6h-28a6 6 0 0 1-6-6zM-270 681.4a6 6 0 0 1 6-6h28a6 6 0 0 1 6 6v108a6 6 0 0 1-6 6h-28a6 6 0 0 1-6-6zM-271.3 1006a6 6 0 0 1 6-6h28a6 6 0 0 1 6 6v128a6 6 0 0 1-6 6h-28a6 6 0 0 1-6-6zM-1218.6-233.34a6 6 0 0 1 6-6h28a6 6 0 0 1 6 6V-26a6 6 0 0 1-6 6h-28a6 6 0 0 1-6-6z" stroke="#3a414a" fill="#fff"/><path d="M-270 1166.66a6 6 0 0 1 6-6h27.5a6 6 0 0 1 6 6v28a6 6 0 0 1-6 6H-264a6 6 0 0 1-6-6z" fill="none"/><path d="M-266.05 1164.66l31.6 32m0-32l-31.6 32" stroke="#3a414a" stroke-width="8" fill="none"/><path d="M-269.5 833.38a6 6 0 0 1 6-6h27.5a6 6 0 0 1 6 6v28a6 6 0 0 1-6 6h-27.5a6 6 0 0 1-6-6z" fill="none"/><path d="M-265.55 831.38l31.6 32m0-32l-31.6 32" stroke="#3a414a" stroke-width="8" fill="none"/><path d="M-269 389.6a6 6 0 0 1 6-6h27.5a6 6 0 0 1 6 6v28a6 6 0 0 1-6 6H-263a6 6 0 0 1-6-6z" fill="none"/><path d="M-265.05 387.6l31.6 32m0-32l-31.6 32" stroke="#3a414a" stroke-width="8" fill="none"/><path d="M-720 1286a6 6 0 0 1 6-6h27.5a6 6 0 0 1 6 6v28a6 6 0 0 1-6 6H-714a6 6 0 0 1-6-6z" fill="none"/><path d="M-716.05 1284l31.6 32m0-32l-31.6 32" stroke="#3a414a" stroke-width="8" fill="none"/><defs><path fill="#3a414a" d="M205 0l-28-72H64L36 0H1l101-248h38L239 0h-34zm-38-99l-47-123c-12 45-31 82-46 123h93" id="L"/><path fill="#3a414a" d="M24 0v-261h32V0H24" id="M"/><path fill="#3a414a" d="M59-47c-2 24 18 29 38 22v24C64 9 27 4 27-40v-127H5v-23h24l9-43h21v43h35v23H59v120" id="N"/><g id="a"><use transform="matrix(0.06172839506172839,0,0,0.06172839506172839,0,0)" xlink:href="#L"/><use transform="matrix(0.06172839506172839,0,0,0.06172839506172839,14.814814814814813,0)" xlink:href="#M"/><use transform="matrix(0.06172839506172839,0,0,0.06172839506172839,19.691358024691354,0)" xlink:href="#N"/></g><path fill="#3a414a" d="M114-163C36-179 61-72 57 0H25l-1-190h30c1 12-1 29 2 39 6-27 23-49 58-41v29" id="O"/><path fill="#3a414a" d="M100-194c63 0 86 42 84 106H49c0 40 14 67 53 68 26 1 43-12 49-29l28 8c-11 28-37 45-77 45C44 4 14-33 15-96c1-61 26-98 85-98zm52 81c6-60-76-77-97-28-3 7-6 17-6 28h103" id="P"/><path fill="#3a414a" d="M96-169c-40 0-48 33-48 73s9 75 48 75c24 0 41-14 43-38l32 2c-6 37-31 61-74 61-59 0-76-41-82-99-10-93 101-131 147-64 4 7 5 14 7 22l-32 3c-4-21-16-35-41-35" id="Q"/><path fill="#3a414a" d="M24-231v-30h32v30H24zM24 0v-190h32V0H24" id="R"/><path fill="#3a414a" d="M115-194c55 1 70 41 70 98S169 2 115 4C84 4 66-9 55-30l1 105H24l-1-265h31l2 30c10-21 28-34 59-34zm-8 174c40 0 45-34 45-75s-6-73-45-74c-42 0-51 32-51 76 0 43 10 73 51 73" id="S"/><path fill="#3a414a" d="M117-194c89-4 53 116 60 194h-32v-121c0-31-8-49-39-48C34-167 62-67 57 0H25l-1-190h30c1 10-1 24 2 32 11-22 29-35 61-36" id="T"/><g id="b"><use transform="matrix(0.06172839506172839,0,0,0.06172839506172839,0,0)" xlink:href="#O"/><use transform="matrix(0.06172839506172839,0,0,0.06172839506172839,7.345679012345679,0)" xlink:href="#P"/><use transform="matrix(0.06172839506172839,0,0,0.06172839506172839,19.691358024691358,0)" xlink:href="#Q"/><use transform="matrix(0.06172839506172839,0,0,0.06172839506172839,30.80246913580247,0)" xlink:href="#R"/><use transform="matrix(0.06172839506172839,0,0,0.06172839506172839,35.67901234567901,0)" xlink:href="#S"/><use transform="matrix(0.06172839506172839,0,0,0.06172839506172839,48.02469135802469,0)" xlink:href="#R"/><use transform="matrix(0.06172839506172839,0,0,0.06172839506172839,52.901234567901234,0)" xlink:href="#P"/><use transform="matrix(0.06172839506172839,0,0,0.06172839506172839,65.24691358024691,0)" xlink:href="#T"/><use transform="matrix(0.06172839506172839,0,0,0.06172839506172839,77.5925925925926,0)" xlink:href="#N"/></g><path fill="#3a414a" d="M18-150v-26h174v26H18zm0 90v-26h174v26H18" id="U"/><use transform="matrix(0.06172839506172839,0,0,0.06172839506172839,0,0)" xlink:href="#U" id="c"/><path fill="#3a414a" d="M33 0v-248h34V0H33" id="V"/><path fill="#3a414a" d="M135-143c-3-34-86-38-87 0 15 53 115 12 119 90S17 21 10-45l28-5c4 36 97 45 98 0-10-56-113-15-118-90-4-57 82-63 122-42 12 7 21 19 24 35" id="W"/><path fill="#3a414a" d="M141-36C126-15 110 5 73 4 37 3 15-17 15-53c-1-64 63-63 125-63 3-35-9-54-41-54-24 1-41 7-42 31l-33-3c5-37 33-52 76-52 45 0 72 20 72 64v82c-1 20 7 32 28 27v20c-31 9-61-2-59-35zM48-53c0 20 12 33 32 33 41-3 63-29 60-74-43 2-92-5-92 41" id="X"/><path fill="#3a414a" d="M179-190L93 31C79 59 56 82 12 73V49c39 6 53-20 64-50L1-190h34L92-34l54-156h33" id="Y"/><g id="d"><use transform="matrix(0.06172839506172839,0,0,0.06172839506172839,0,0)" xlink:href="#V"/><use transform="matrix(0.06172839506172839,0,0,0.06172839506172839,6.172839506172839,0)" xlink:href="#T"/><use transform="matrix(0.06172839506172839,0,0,0.06172839506172839,18.51851851851852,0)" xlink:href="#W"/><use transform="matrix(0.06172839506172839,0,0,0.06172839506172839,29.62962962962963,0)" xlink:href="#N"/><use transform="matrix(0.06172839506172839,0,0,0.06172839506172839,35.80246913580247,0)" xlink:href="#X"/><use transform="matrix(0.06172839506172839,0,0,0.06172839506172839,48.148148148148145,0)" xlink:href="#S"/><use transform="matrix(0.06172839506172839,0,0,0.06172839506172839,60.49382716049382,0)" xlink:href="#X"/><use transform="matrix(0.06172839506172839,0,0,0.06172839506172839,72.8395061728395,0)" xlink:href="#Y"/></g><path fill="#3a414a" d="M100-194c62-1 85 37 85 99 1 63-27 99-86 99S16-35 15-95c0-66 28-99 85-99zM99-20c44 1 53-31 53-75 0-43-8-75-51-75s-53 32-53 75 10 74 51 75" id="Z"/><path fill="#3a414a" d="M84 4C-5 8 30-112 23-190h32v120c0 31 7 50 39 49 72-2 45-101 50-169h31l1 190h-30c-1-10 1-25-2-33-11 22-28 36-60 37" id="aa"/><g id="e"><use transform="matrix(0.06172839506172839,0,0,0.06172839506172839,0,0)" xlink:href="#X"/><use transform="matrix(0.06172839506172839,0,0,0.06172839506172839,12.345679012345679,0)" xlink:href="#Q"/><use transform="matrix(0.06172839506172839,0,0,0.06172839506172839,23.45679012345679,0)" xlink:href="#Q"/><use transform="matrix(0.06172839506172839,0,0,0.06172839506172839,34.5679012345679,0)" xlink:href="#Z"/><use transform="matrix(0.06172839506172839,0,0,0.06172839506172839,46.913580246913575,0)" xlink:href="#aa"/><use transform="matrix(0.06172839506172839,0,0,0.06172839506172839,59.25925925925925,0)" xlink:href="#T"/><use transform="matrix(0.06172839506172839,0,0,0.06172839506172839,71.60493827160494,0)" xlink:href="#N"/></g><path d="M33-154v-36h34v36H33zM33 0v-36h34V0H33" id="ab"/><path d="M33 0v-248h34V0H33" id="ac"/><path d="M117-194c89-4 53 116 60 194h-32v-121c0-31-8-49-39-48C34-167 62-67 57 0H25l-1-190h30c1 10-1 24 2 32 11-22 29-35 61-36" id="ad"/><path d="M135-143c-3-34-86-38-87 0 15 53 115 12 119 90S17 21 10-45l28-5c4 36 97 45 98 0-10-56-113-15-118-90-4-57 82-63 122-42 12 7 21 19 24 35" id="ae"/><path d="M59-47c-2 24 18 29 38 22v24C64 9 27 4 27-40v-127H5v-23h24l9-43h21v43h35v23H59v120" id="af"/><path d="M141-36C126-15 110 5 73 4 37 3 15-17 15-53c-1-64 63-63 125-63 3-35-9-54-41-54-24 1-41 7-42 31l-33-3c5-37 33-52 76-52 45 0 72 20 72 64v82c-1 20 7 32 28 27v20c-31 9-61-2-59-35zM48-53c0 20 12 33 32 33 41-3 63-29 60-74-43 2-92-5-92 41" id="ag"/><path d="M30-248c87 1 191-15 191 75 0 78-77 80-158 76V0H30v-248zm33 125c57 0 124 11 124-50 0-59-68-47-124-48v98" id="ah"/><path d="M179-190L93 31C79 59 56 82 12 73V49c39 6 53-20 64-50L1-190h34L92-34l54-156h33" id="ai"/><path d="M205 0l-28-72H64L36 0H1l101-248h38L239 0h-34zm-38-99l-47-123c-12 45-31 82-46 123h93" id="aj"/><path d="M115-194c55 1 70 41 70 98S169 2 115 4C84 4 66-9 55-30l1 105H24l-1-265h31l2 30c10-21 28-34 59-34zm-8 174c40 0 45-34 45-75s-6-73-45-74c-42 0-51 32-51 76 0 43 10 73 51 73" id="ak"/><g id="f"><use transform="matrix(0.04938271604938272,0,0,0.04938271604938272,0,0)" xlink:href="#ab"/><use transform="matrix(0.04938271604938272,0,0,0.04938271604938272,4.938271604938272,0)" xlink:href="#ac"/><use transform="matrix(0.04938271604938272,0,0,0.04938271604938272,9.876543209876544,0)" xlink:href="#ad"/><use transform="matrix(0.04938271604938272,0,0,0.04938271604938272,19.75308641975309,0)" xlink:href="#ae"/><use transform="matrix(0.04938271604938272,0,0,0.04938271604938272,28.641975308641978,0)" xlink:href="#af"/><use transform="matrix(0.04938271604938272,0,0,0.04938271604938272,33.580246913580254,0)" xlink:href="#ag"/><use transform="matrix(0.04938271604938272,0,0,0.04938271604938272,43.4567901234568,0)" xlink:href="#ah"/><use transform="matrix(0.04938271604938272,0,0,0.04938271604938272,55.30864197530866,0)" xlink:href="#ag"/><use transform="matrix(0.04938271604938272,0,0,0.04938271604938272,65.18518518518519,0)" xlink:href="#ai"/><use transform="matrix(0.04938271604938272,0,0,0.04938271604938272,74.07407407407408,0)" xlink:href="#aj"/><use transform="matrix(0.04938271604938272,0,0,0.04938271604938272,85.92592592592592,0)" xlink:href="#ak"/><use transform="matrix(0.04938271604938272,0,0,0.04938271604938272,95.80246913580247,0)" xlink:href="#ak"/></g><path d="M127-220V0H93v-220H8v-28h204v28h-85" id="al"/><path d="M114-163C36-179 61-72 57 0H25l-1-190h30c1 12-1 29 2 39 6-27 23-49 58-41v29" id="am"/><path d="M101-234c-31-9-42 10-38 44h38v23H63V0H32v-167H5v-23h27c-7-52 17-82 69-68v24" id="an"/><path d="M100-194c63 0 86 42 84 106H49c0 40 14 67 53 68 26 1 43-12 49-29l28 8c-11 28-37 45-77 45C44 4 14-33 15-96c1-61 26-98 85-98zm52 81c6-60-76-77-97-28-3 7-6 17-6 28h103" id="ao"/><g id="g"><use transform="matrix(0.04938271604938272,0,0,0.04938271604938272,0,0)" xlink:href="#ab"/><use transform="matrix(0.04938271604938272,0,0,0.04938271604938272,4.938271604938272,0)" xlink:href="#al"/><use transform="matrix(0.04938271604938272,0,0,0.04938271604938272,15.111111111111109,0)" xlink:href="#am"/><use transform="matrix(0.04938271604938272,0,0,0.04938271604938272,20.987654320987655,0)" xlink:href="#ag"/><use transform="matrix(0.04938271604938272,0,0,0.04938271604938272,30.8641975308642,0)" xlink:href="#ad"/><use transform="matrix(0.04938271604938272,0,0,0.04938271604938272,40.74074074074075,0)" xlink:href="#ae"/><use transform="matrix(0.04938271604938272,0,0,0.04938271604938272,49.62962962962963,0)" xlink:href="#an"/><use transform="matrix(0.04938271604938272,0,0,0.04938271604938272,54.567901234567906,0)" xlink:href="#ao"/><use transform="matrix(0.04938271604938272,0,0,0.04938271604938272,64.44444444444446,0)" xlink:href="#am"/></g><path fill="#333" d="M136-208V0H84v-208H4v-40h212v40h-80" id="ap"/><path fill="#333" d="M135-150c-39-12-60 13-60 57V0H25l-1-190h47c2 13-1 29 3 40 6-28 27-53 61-41v41" id="aq"/><path fill="#333" d="M133-34C117-15 103 5 69 4 32 3 11-16 11-54c-1-60 55-63 116-61 1-26-3-47-28-47-18 1-26 9-28 27l-52-2c7-38 36-58 82-57s74 22 75 68l1 82c-1 14 12 18 25 15v27c-30 8-71 5-69-32zm-48 3c29 0 43-24 42-57-32 0-66-3-65 30 0 17 8 27 23 27" id="ar"/><path fill="#333" d="M135-194c87-1 58 113 63 194h-50c-7-57 23-157-34-157-59 0-34 97-39 157H25l-1-190h47c2 12-1 28 3 38 12-26 28-41 61-42" id="as"/><path fill="#333" d="M137-138c1-29-70-34-71-4 15 46 118 7 119 86 1 83-164 76-172 9l43-7c4 19 20 25 44 25 33 8 57-30 24-41C81-84 22-81 20-136c-2-80 154-74 161-7" id="at"/><path fill="#333" d="M121-226c-27-7-43 5-38 36h38v33H83V0H34v-157H6v-33h28c-9-59 32-81 87-68v32" id="au"/><path fill="#333" d="M185-48c-13 30-37 53-82 52C43 2 14-33 14-96s30-98 90-98c62 0 83 45 84 108H66c0 31 8 55 39 56 18 0 30-7 34-22zm-45-69c5-46-57-63-70-21-2 6-4 13-4 21h74" id="av"/><path fill="#333" d="M67-93c0 74 22 123 53 168H70C40 30 18-18 18-93s22-123 52-168h50c-32 44-53 94-53 168" id="aw"/><path fill="#333" d="M24 0v-248h52V0H24" id="ax"/><path fill="#333" d="M115-3C79 11 28 4 28-45v-112H4v-33h27l15-45h31v45h36v33H77v99c-1 23 16 31 38 25v30" id="ay"/><path fill="#333" d="M24-248c93 1 206-16 204 79-1 75-69 88-152 82V0H24v-248zm52 121c47 0 100 7 100-41 0-47-54-39-100-39v80" id="az"/><path fill="#333" d="M123 10C108 53 80 86 19 72V37c35 8 53-11 59-39L3-190h52l48 148c12-52 28-100 44-148h51" id="aA"/><path fill="#333" d="M199 0l-22-63H83L61 0H9l90-248h61L250 0h-51zm-33-102l-36-108c-10 38-24 72-36 108h72" id="aB"/><path fill="#333" d="M190-63c-7 42-38 67-86 67-59 0-84-38-90-98-12-110 154-137 174-36l-49 2c-2-19-15-32-35-32-30 0-35 28-38 64-6 74 65 87 74 30" id="aC"/><path fill="#333" d="M110-194c64 0 96 36 96 99 0 64-35 99-97 99-61 0-95-36-95-99 0-62 34-99 96-99zm-1 164c35 0 45-28 45-65 0-40-10-65-43-65-34 0-45 26-45 65 0 36 10 65 43 65" id="aD"/><path fill="#333" d="M85 4C-2 5 27-109 22-190h50c7 57-23 150 33 157 60-5 35-97 40-157h50l1 190h-47c-2-12 1-28-3-38-12 25-28 42-61 42" id="aE"/><g id="h"><use transform="matrix(0.04938271604938272,0,0,0.04938271604938272,0,0)" xlink:href="#ap"/><use transform="matrix(0.04938271604938272,0,0,0.04938271604938272,9.82716049382716,0)" xlink:href="#aq"/><use transform="matrix(0.04938271604938272,0,0,0.04938271604938272,16.74074074074074,0)" xlink:href="#ar"/><use transform="matrix(0.04938271604938272,0,0,0.04938271604938272,26.617283950617285,0)" xlink:href="#as"/><use transform="matrix(0.04938271604938272,0,0,0.04938271604938272,37.4320987654321,0)" xlink:href="#at"/><use transform="matrix(0.04938271604938272,0,0,0.04938271604938272,47.308641975308646,0)" xlink:href="#au"/><use transform="matrix(0.04938271604938272,0,0,0.04938271604938272,53.18518518518519,0)" xlink:href="#av"/><use transform="matrix(0.04938271604938272,0,0,0.04938271604938272,63.061728395061735,0)" xlink:href="#aq"/><use transform="matrix(0.04938271604938272,0,0,0.04938271604938272,69.97530864197532,0)" xlink:href="#aw"/><use transform="matrix(0.04938271604938272,0,0,0.04938271604938272,75.85185185185186,0)" xlink:href="#ax"/><use transform="matrix(0.04938271604938272,0,0,0.04938271604938272,80.79012345679013,0)" xlink:href="#as"/><use transform="matrix(0.04938271604938272,0,0,0.04938271604938272,91.60493827160494,0)" xlink:href="#at"/><use transform="matrix(0.04938271604938272,0,0,0.04938271604938272,101.4814814814815,0)" xlink:href="#ay"/><use transform="matrix(0.04938271604938272,0,0,0.04938271604938272,107.35802469135804,0)" xlink:href="#ar"/><use transform="matrix(0.04938271604938272,0,0,0.04938271604938272,117.23456790123458,0)" xlink:href="#az"/><use transform="matrix(0.04938271604938272,0,0,0.04938271604938272,129.08641975308643,0)" xlink:href="#ar"/><use transform="matrix(0.04938271604938272,0,0,0.04938271604938272,138.962962962963,0)" xlink:href="#aA"/><use transform="matrix(0.04938271604938272,0,0,0.04938271604938272,148.83950617283955,0)" xlink:href="#aB"/><use transform="matrix(0.04938271604938272,0,0,0.04938271604938272,161.62962962962968,0)" xlink:href="#aC"/><use transform="matrix(0.04938271604938272,0,0,0.04938271604938272,171.50617283950623,0)" xlink:href="#aC"/><use transform="matrix(0.04938271604938272,0,0,0.04938271604938272,181.3827160493828,0)" xlink:href="#aD"/><use transform="matrix(0.04938271604938272,0,0,0.04938271604938272,192.1975308641976,0)" xlink:href="#aE"/><use transform="matrix(0.04938271604938272,0,0,0.04938271604938272,203.0123456790124,0)" xlink:href="#as"/><use transform="matrix(0.04938271604938272,0,0,0.04938271604938272,213.82716049382722,0)" xlink:href="#ay"/></g><path fill="#333" d="M102-93c0 74-22 123-52 168H0C30 29 54-18 53-93c0-74-22-123-53-168h50c30 45 52 94 52 168" id="aF"/><g id="i"><use transform="matrix(0.04938271604938272,0,0,0.04938271604938272,0,0)" xlink:href="#ar"/><use transform="matrix(0.04938271604938272,0,0,0.04938271604938272,9.876543209876544,0)" xlink:href="#aC"/><use transform="matrix(0.04938271604938272,0,0,0.04938271604938272,19.75308641975309,0)" xlink:href="#aC"/><use transform="matrix(0.04938271604938272,0,0,0.04938271604938272,29.629629629629633,0)" xlink:href="#aD"/><use transform="matrix(0.04938271604938272,0,0,0.04938271604938272,40.44444444444445,0)" xlink:href="#aE"/><use transform="matrix(0.04938271604938272,0,0,0.04938271604938272,51.25925925925927,0)" xlink:href="#as"/><use transform="matrix(0.04938271604938272,0,0,0.04938271604938272,62.074074074074076,0)" xlink:href="#ay"/><use transform="matrix(0.04938271604938272,0,0,0.04938271604938272,67.95061728395062,0)" xlink:href="#aF"/></g><g id="j"><use transform="matrix(0.04938271604938272,0,0,0.04938271604938272,0,0)" xlink:href="#ay"/><use transform="matrix(0.04938271604938272,0,0,0.04938271604938272,5.8765432098765435,0)" xlink:href="#aq"/><use transform="matrix(0.04938271604938272,0,0,0.04938271604938272,12.790123456790125,0)" xlink:href="#ar"/><use transform="matrix(0.04938271604938272,0,0,0.04938271604938272,22.666666666666668,0)" xlink:href="#as"/><use transform="matrix(0.04938271604938272,0,0,0.04938271604938272,33.48148148148148,0)" xlink:href="#at"/><use transform="matrix(0.04938271604938272,0,0,0.04938271604938272,43.358024691358025,0)" xlink:href="#au"/><use transform="matrix(0.04938271604938272,0,0,0.04938271604938272,49.23456790123457,0)" xlink:href="#av"/><use transform="matrix(0.04938271604938272,0,0,0.04938271604938272,59.111111111111114,0)" xlink:href="#aq"/><use transform="matrix(0.04938271604938272,0,0,0.04938271604938272,66.0246913580247,0)" xlink:href="#aw"/><use transform="matrix(0.04938271604938272,0,0,0.04938271604938272,71.90123456790124,0)" xlink:href="#aF"/></g><path d="M96-169c-40 0-48 33-48 73s9 75 48 75c24 0 41-14 43-38l32 2c-6 37-31 61-74 61-59 0-76-41-82-99-10-93 101-131 147-64 4 7 5 14 7 22l-32 3c-4-21-16-35-41-35" id="aG"/><path d="M100-194c62-1 85 37 85 99 1 63-27 99-86 99S16-35 15-95c0-66 28-99 85-99zM99-20c44 1 53-31 53-75 0-43-8-75-51-75s-53 32-53 75 10 74 51 75" id="aH"/><path d="M84 4C-5 8 30-112 23-190h32v120c0 31 7 50 39 49 72-2 45-101 50-169h31l1 190h-30c-1-10 1-25-2-33-11 22-28 36-60 37" id="aI"/><path d="M210-169c-67 3-38 105-44 169h-31v-121c0-29-5-50-35-48C34-165 62-65 56 0H25l-1-190h30c1 10-1 24 2 32 10-44 99-50 107 0 11-21 27-35 58-36 85-2 47 119 55 194h-31v-121c0-29-5-49-35-48" id="aJ"/><g id="k"><use transform="matrix(0.04938271604938272,0,0,0.04938271604938272,0,0)" xlink:href="#ab"/><use transform="matrix(0.04938271604938272,0,0,0.04938271604938272,4.938271604938272,0)" xlink:href="#ac"/><use transform="matrix(0.04938271604938272,0,0,0.04938271604938272,9.876543209876544,0)" xlink:href="#ad"/><use transform="matrix(0.04938271604938272,0,0,0.04938271604938272,19.75308641975309,0)" xlink:href="#ae"/><use transform="matrix(0.04938271604938272,0,0,0.04938271604938272,28.641975308641978,0)" xlink:href="#af"/><use transform="matrix(0.04938271604938272,0,0,0.04938271604938272,33.580246913580254,0)" xlink:href="#ag"/><use transform="matrix(0.04938271604938272,0,0,0.04938271604938272,43.4567901234568,0)" xlink:href="#ak"/><use transform="matrix(0.04938271604938272,0,0,0.04938271604938272,53.333333333333336,0)" xlink:href="#ag"/><use transform="matrix(0.04938271604938272,0,0,0.04938271604938272,63.20987654320988,0)" xlink:href="#ai"/><use transform="matrix(0.04938271604938272,0,0,0.04938271604938272,72.09876543209877,0)" xlink:href="#aj"/><use transform="matrix(0.04938271604938272,0,0,0.04938271604938272,83.95061728395062,0)" xlink:href="#aG"/><use transform="matrix(0.04938271604938272,0,0,0.04938271604938272,92.8395061728395,0)" xlink:href="#aG"/><use transform="matrix(0.04938271604938272,0,0,0.04938271604938272,101.72839506172838,0)" xlink:href="#aH"/><use transform="matrix(0.04938271604938272,0,0,0.04938271604938272,111.60493827160492,0)" xlink:href="#aI"/><use transform="matrix(0.04938271604938272,0,0,0.04938271604938272,121.4814814814815,0)" xlink:href="#ad"/><use transform="matrix(0.04938271604938272,0,0,0.04938271604938272,131.35802469135803,0)" xlink:href="#af"/><use transform="matrix(0.04938271604938272,0,0,0.04938271604938272,136.2962962962963,0)" xlink:href="#ah"/><use transform="matrix(0.04938271604938272,0,0,0.04938271604938272,148.14814814814815,0)" xlink:href="#ag"/><use transform="matrix(0.04938271604938272,0,0,0.04938271604938272,158.0246913580247,0)" xlink:href="#ai"/><use transform="matrix(0.04938271604938272,0,0,0.04938271604938272,166.9135802469136,0)" xlink:href="#aJ"/><use transform="matrix(0.04938271604938272,0,0,0.04938271604938272,181.67901234567904,0)" xlink:href="#ao"/><use transform="matrix(0.04938271604938272,0,0,0.04938271604938272,191.5555555555556,0)" xlink:href="#ad"/><use transform="matrix(0.04938271604938272,0,0,0.04938271604938272,201.43209876543216,0)" xlink:href="#af"/></g><path fill="#333" d="M114-157C55-157 80-60 75 0H25v-261h50l-1 109c12-26 28-41 61-42 86-1 58 113 63 194h-50c-7-57 23-157-34-157" id="aK"/><path fill="#333" d="M147 0L96-86 75-71V0H25v-261h50v150l67-79h53l-66 74L201 0h-54" id="aL"/><path fill="#333" d="M169-182c-1-43-94-46-97-3 18 66 151 10 154 114 3 95-165 93-204 36-6-8-10-19-12-30l50-8c3 46 112 56 116 5-17-69-150-10-154-114-4-87 153-88 188-35 5 8 8 18 10 28" id="aM"/><path fill="#333" d="M25-224v-37h50v37H25zM25 0v-190h50V0H25" id="aN"/><path fill="#333" d="M195-6C206 82 75 100 31 46c-4-6-6-13-8-21l49-6c3 16 16 24 34 25 40 0 42-37 40-79-11 22-30 35-61 35-53 0-70-43-70-97 0-56 18-96 73-97 30 0 46 14 59 34l2-30h47zm-90-29c32 0 41-27 41-63 0-35-9-62-40-62-32 0-39 29-40 63 0 36 9 62 39 62" id="aO"/><g id="l"><use transform="matrix(0.04938271604938272,0,0,0.04938271604938272,0,0)" xlink:href="#aC"/><use transform="matrix(0.04938271604938272,0,0,0.04938271604938272,9.876543209876544,0)" xlink:href="#aK"/><use transform="matrix(0.04938271604938272,0,0,0.04938271604938272,20.69135802469136,0)" xlink:href="#av"/><use transform="matrix(0.04938271604938272,0,0,0.04938271604938272,30.567901234567906,0)" xlink:href="#aC"/><use transform="matrix(0.04938271604938272,0,0,0.04938271604938272,40.44444444444445,0)" xlink:href="#aL"/><use transform="matrix(0.04938271604938272,0,0,0.04938271604938272,50.320987654320994,0)" xlink:href="#aw"/><use transform="matrix(0.04938271604938272,0,0,0.04938271604938272,56.19753086419754,0)" xlink:href="#aM"/><use transform="matrix(0.04938271604938272,0,0,0.04938271604938272,68.0493827160494,0)" xlink:href="#ay"/><use transform="matrix(0.04938271604938272,0,0,0.04938271604938272,73.92592592592594,0)" xlink:href="#aq"/><use transform="matrix(0.04938271604938272,0,0,0.04938271604938272,80.83950617283952,0)" xlink:href="#aN"/><use transform="matrix(0.04938271604938272,0,0,0.04938271604938272,85.7777777777778,0)" xlink:href="#as"/><use transform="matrix(0.04938271604938272,0,0,0.04938271604938272,96.59259259259261,0)" xlink:href="#aO"/></g><path fill="#333" d="M24-248c120-7 223 5 221 122C244-46 201 0 124 0H24v-248zM76-40c74 7 117-18 117-86 0-67-45-88-117-82v168" id="aP"/><g id="m"><use transform="matrix(0.04938271604938272,0,0,0.04938271604938272,0,0)" xlink:href="#ax"/><use transform="matrix(0.04938271604938272,0,0,0.04938271604938272,4.938271604938272,0)" xlink:href="#aP"/><use transform="matrix(0.04938271604938272,0,0,0.04938271604938272,17.7283950617284,0)" xlink:href="#aF"/></g><g id="n"><use transform="matrix(0.04938271604938272,0,0,0.04938271604938272,0,0)" xlink:href="#aq"/><use transform="matrix(0.04938271604938272,0,0,0.04938271604938272,6.913580246913581,0)" xlink:href="#av"/><use transform="matrix(0.04938271604938272,0,0,0.04938271604938272,16.790123456790127,0)" xlink:href="#ay"/><use transform="matrix(0.04938271604938272,0,0,0.04938271604938272,22.66666666666667,0)" xlink:href="#aE"/><use transform="matrix(0.04938271604938272,0,0,0.04938271604938272,33.48148148148149,0)" xlink:href="#aq"/><use transform="matrix(0.04938271604938272,0,0,0.04938271604938272,40.39506172839507,0)" xlink:href="#as"/></g><g id="o"><use transform="matrix(0.04938271604938272,0,0,0.04938271604938272,0,0)" xlink:href="#ap"/><use transform="matrix(0.04938271604938272,0,0,0.04938271604938272,9.82716049382716,0)" xlink:href="#aq"/><use transform="matrix(0.04938271604938272,0,0,0.04938271604938272,16.74074074074074,0)" xlink:href="#aE"/><use transform="matrix(0.04938271604938272,0,0,0.04938271604938272,27.555555555555557,0)" xlink:href="#av"/></g><path fill="#333" d="M135-194c53 0 70 44 70 98 0 56-19 98-73 100-31 1-45-17-59-34 3 33 2 69 2 105H25l-1-265h48c2 10 0 23 3 31 11-24 29-35 60-35zM114-30c33 0 39-31 40-66 0-38-9-64-40-64-56 0-55 130 0 130" id="aQ"/><path fill="#333" d="M88-194c31-1 46 15 58 34l-1-101h50l1 261h-48c-2-10 0-23-3-31C134-8 116 4 84 4 32 4 16-41 15-95c0-56 19-97 73-99zm17 164c33 0 40-30 41-66 1-37-9-64-41-64s-38 30-39 65c0 43 13 65 39 65" id="aR"/><path fill="#333" d="M135-194c52 0 70 43 70 98 0 56-19 99-73 100-30 1-46-15-58-35L72 0H24l1-261h50v104c11-23 29-37 60-37zM114-30c31 0 40-27 40-66 0-37-7-63-39-63s-41 28-41 65c0 36 8 64 40 64" id="aS"/><path fill="#333" d="M25 0v-261h50V0H25" id="aT"/><g id="p"><use transform="matrix(0.04938271604938272,0,0,0.04938271604938272,0,0)" xlink:href="#aQ"/><use transform="matrix(0.04938271604938272,0,0,0.04938271604938272,10.814814814814815,0)" xlink:href="#ar"/><use transform="matrix(0.04938271604938272,0,0,0.04938271604938272,20.69135802469136,0)" xlink:href="#aA"/><use transform="matrix(0.04938271604938272,0,0,0.04938271604938272,30.567901234567906,0)" xlink:href="#aw"/><use transform="matrix(0.04938271604938272,0,0,0.04938271604938272,36.44444444444445,0)" xlink:href="#aR"/><use transform="matrix(0.04938271604938272,0,0,0.04938271604938272,47.25925925925927,0)" xlink:href="#aD"/><use transform="matrix(0.04938271604938272,0,0,0.04938271604938272,58.074074074074076,0)" xlink:href="#aE"/><use transform="matrix(0.04938271604938272,0,0,0.04938271604938272,68.8888888888889,0)" xlink:href="#aS"/><use transform="matrix(0.04938271604938272,0,0,0.04938271604938272,79.70370370370371,0)" xlink:href="#aT"/><use transform="matrix(0.04938271604938272,0,0,0.04938271604938272,84.64197530864197,0)" xlink:href="#av"/></g><path fill="#333" d="M220-157c-53 9-28 100-34 157h-49v-107c1-27-5-49-29-50C55-147 81-57 75 0H25l-1-190h47c2 12-1 28 3 38 10-53 101-56 108 0 13-22 24-43 59-42 82 1 51 116 57 194h-49v-107c-1-25-5-48-29-50" id="aU"/><g id="q"><use transform="matrix(0.04938271604938272,0,0,0.04938271604938272,0,0)" xlink:href="#ar"/><use transform="matrix(0.04938271604938272,0,0,0.04938271604938272,9.876543209876544,0)" xlink:href="#aU"/><use transform="matrix(0.04938271604938272,0,0,0.04938271604938272,25.679012345679016,0)" xlink:href="#aD"/><use transform="matrix(0.04938271604938272,0,0,0.04938271604938272,36.49382716049383,0)" xlink:href="#aE"/><use transform="matrix(0.04938271604938272,0,0,0.04938271604938272,47.308641975308646,0)" xlink:href="#as"/><use transform="matrix(0.04938271604938272,0,0,0.04938271604938272,58.12345679012346,0)" xlink:href="#ay"/></g><path fill="#333" d="M76-54c-1 42 2 86-19 110H24C36 42 46 24 48 0H25v-54h51" id="aV"/><use transform="matrix(0.04938271604938272,0,0,0.04938271604938272,0,0)" xlink:href="#aV" id="r"/><g id="s"><use transform="matrix(0.04938271604938272,0,0,0.04938271604938272,0,0)" xlink:href="#at"/><use transform="matrix(0.04938271604938272,0,0,0.04938271604938272,9.876543209876544,0)" xlink:href="#ay"/><use transform="matrix(0.04938271604938272,0,0,0.04938271604938272,15.753086419753087,0)" xlink:href="#aq"/><use transform="matrix(0.04938271604938272,0,0,0.04938271604938272,22.66666666666667,0)" xlink:href="#aN"/><use transform="matrix(0.04938271604938272,0,0,0.04938271604938272,27.604938271604947,0)" xlink:href="#as"/><use transform="matrix(0.04938271604938272,0,0,0.04938271604938272,38.41975308641976,0)" xlink:href="#aO"/></g><g id="t"><use transform="matrix(0.04938271604938272,0,0,0.04938271604938272,0,0)" xlink:href="#ax"/><use transform="matrix(0.04938271604938272,0,0,0.04938271604938272,4.938271604938272,0)" xlink:href="#aP"/><use transform="matrix(0.04938271604938272,0,0,0.04938271604938272,17.7283950617284,0)" xlink:href="#aF"/></g><path d="M160-131c35 5 61 23 61 61C221 17 115-2 30 0v-248c76 3 177-17 177 60 0 33-19 50-47 57zm-97-11c50-1 110 9 110-42 0-47-63-36-110-37v79zm0 115c55-2 124 14 124-45 0-56-70-42-124-44v89" id="aW"/><path d="M143 0L79-87 56-68V0H24v-261h32v163l83-92h37l-77 82L181 0h-38" id="aX"/><g id="u"><use transform="matrix(0.04938271604938272,0,0,0.04938271604938272,0,0)" xlink:href="#ab"/><use transform="matrix(0.04938271604938272,0,0,0.04938271604938272,4.938271604938272,0)" xlink:href="#aW"/><use transform="matrix(0.04938271604938272,0,0,0.04938271604938272,16.790123456790127,0)" xlink:href="#ag"/><use transform="matrix(0.04938271604938272,0,0,0.04938271604938272,26.666666666666668,0)" xlink:href="#ad"/><use transform="matrix(0.04938271604938272,0,0,0.04938271604938272,36.543209876543216,0)" xlink:href="#aX"/><use transform="matrix(0.04938271604938272,0,0,0.04938271604938272,45.4320987654321,0)" xlink:href="#aj"/><use transform="matrix(0.04938271604938272,0,0,0.04938271604938272,57.283950617283956,0)" xlink:href="#aG"/><use transform="matrix(0.04938271604938272,0,0,0.04938271604938272,66.17283950617285,0)" xlink:href="#aG"/><use transform="matrix(0.04938271604938272,0,0,0.04938271604938272,75.06172839506173,0)" xlink:href="#aH"/><use transform="matrix(0.04938271604938272,0,0,0.04938271604938272,84.93827160493828,0)" xlink:href="#aI"/><use transform="matrix(0.04938271604938272,0,0,0.04938271604938272,94.81481481481482,0)" xlink:href="#ad"/><use transform="matrix(0.04938271604938272,0,0,0.04938271604938272,104.69135802469137,0)" xlink:href="#af"/></g><path fill="#3a414a" d="M160-131c35 5 61 23 61 61C221 17 115-2 30 0v-248c76 3 177-17 177 60 0 33-19 50-47 57zm-97-11c50-1 110 9 110-42 0-47-63-36-110-37v79zm0 115c55-2 124 14 124-45 0-56-70-42-124-44v89" id="aY"/><path fill="#3a414a" d="M143 0L79-87 56-68V0H24v-261h32v163l83-92h37l-77 82L181 0h-38" id="aZ"/><g id="v"><use transform="matrix(0.06172839506172839,0,0,0.06172839506172839,0,0)" xlink:href="#aY"/><use transform="matrix(0.06172839506172839,0,0,0.06172839506172839,14.814814814814813,0)" xlink:href="#X"/><use transform="matrix(0.06172839506172839,0,0,0.06172839506172839,27.160493827160494,0)" xlink:href="#T"/><use transform="matrix(0.06172839506172839,0,0,0.06172839506172839,39.50617283950617,0)" xlink:href="#aZ"/></g><path fill="#3a414a" d="M30 0v-248h187v28H63v79h144v27H63v87h162V0H30" id="ba"/><g id="w"><use transform="matrix(0.06172839506172839,0,0,0.06172839506172839,0,0)" xlink:href="#ba"/><use transform="matrix(0.06172839506172839,0,0,0.06172839506172839,14.814814814814813,0)" xlink:href="#M"/><use transform="matrix(0.06172839506172839,0,0,0.06172839506172839,19.691358024691354,0)" xlink:href="#W"/><use transform="matrix(0.06172839506172839,0,0,0.06172839506172839,30.802469135802465,0)" xlink:href="#P"/></g><path d="M266 0h-40l-56-210L115 0H75L2-248h35L96-30l15-64 43-154h32l59 218 59-218h35" id="bb"/><path d="M24 0v-261h32V0H24" id="bc"/><g id="x"><use transform="matrix(0.04938271604938272,0,0,0.04938271604938272,0,0)" xlink:href="#ab"/><use transform="matrix(0.04938271604938272,0,0,0.04938271604938272,4.938271604938272,0)" xlink:href="#bb"/><use transform="matrix(0.04938271604938272,0,0,0.04938271604938272,21.037037037037038,0)" xlink:href="#ag"/><use transform="matrix(0.04938271604938272,0,0,0.04938271604938272,30.913580246913583,0)" xlink:href="#bc"/><use transform="matrix(0.04938271604938272,0,0,0.04938271604938272,34.81481481481482,0)" xlink:href="#bc"/><use transform="matrix(0.04938271604938272,0,0,0.04938271604938272,38.71604938271605,0)" xlink:href="#ao"/><use transform="matrix(0.04938271604938272,0,0,0.04938271604938272,48.592592592592595,0)" xlink:href="#af"/><use transform="matrix(0.04938271604938272,0,0,0.04938271604938272,53.53086419753087,0)" xlink:href="#aj"/><use transform="matrix(0.04938271604938272,0,0,0.04938271604938272,65.38271604938272,0)" xlink:href="#aG"/><use transform="matrix(0.04938271604938272,0,0,0.04938271604938272,74.27160493827161,0)" xlink:href="#aG"/><use transform="matrix(0.04938271604938272,0,0,0.04938271604938272,83.1604938271605,0)" xlink:href="#aH"/><use transform="matrix(0.04938271604938272,0,0,0.04938271604938272,93.03703703703704,0)" xlink:href="#aI"/><use transform="matrix(0.04938271604938272,0,0,0.04938271604938272,102.91358024691358,0)" xlink:href="#ad"/><use transform="matrix(0.04938271604938272,0,0,0.04938271604938272,112.79012345679013,0)" xlink:href="#af"/></g><path fill="#3a414a" d="M232-93c-1 65-40 97-104 97C67 4 28-28 28-90v-158h33c8 89-33 224 67 224 102 0 64-133 71-224h33v155" id="bd"/><g id="y"><use transform="matrix(0.06172839506172839,0,0,0.06172839506172839,0,0)" xlink:href="#bd"/><use transform="matrix(0.06172839506172839,0,0,0.06172839506172839,15.987654320987653,0)" xlink:href="#W"/><use transform="matrix(0.06172839506172839,0,0,0.06172839506172839,27.098765432098766,0)" xlink:href="#P"/><use transform="matrix(0.06172839506172839,0,0,0.06172839506172839,39.44444444444444,0)" xlink:href="#O"/></g><path fill="#3a414a" d="M30-248c87 1 191-15 191 75 0 78-77 80-158 76V0H30v-248zm33 125c57 0 124 11 124-50 0-59-68-47-124-48v98" id="be"/><g id="z"><use transform="matrix(0.06172839506172839,0,0,0.06172839506172839,0,0)" xlink:href="#V"/><use transform="matrix(0.06172839506172839,0,0,0.06172839506172839,6.172839506172839,0)" xlink:href="#T"/><use transform="matrix(0.06172839506172839,0,0,0.06172839506172839,18.51851851851852,0)" xlink:href="#W"/><use transform="matrix(0.06172839506172839,0,0,0.06172839506172839,29.62962962962963,0)" xlink:href="#N"/><use transform="matrix(0.06172839506172839,0,0,0.06172839506172839,35.80246913580247,0)" xlink:href="#X"/><use transform="matrix(0.06172839506172839,0,0,0.06172839506172839,48.148148148148145,0)" xlink:href="#be"/><use transform="matrix(0.06172839506172839,0,0,0.06172839506172839,62.96296296296296,0)" xlink:href="#X"/><use transform="matrix(0.06172839506172839,0,0,0.06172839506172839,75.30864197530865,0)" xlink:href="#Y"/><use transform="matrix(0.06172839506172839,0,0,0.06172839506172839,86.41975308641976,0)" xlink:href="#L"/><use transform="matrix(0.06172839506172839,0,0,0.06172839506172839,101.23456790123457,0)" xlink:href="#Q"/><use transform="matrix(0.06172839506172839,0,0,0.06172839506172839,112.34567901234568,0)" xlink:href="#Q"/><use transform="matrix(0.06172839506172839,0,0,0.06172839506172839,123.4567901234568,0)" xlink:href="#Z"/><use transform="matrix(0.06172839506172839,0,0,0.06172839506172839,135.80246913580248,0)" xlink:href="#aa"/><use transform="matrix(0.06172839506172839,0,0,0.06172839506172839,148.14814814814815,0)" xlink:href="#T"/><use transform="matrix(0.06172839506172839,0,0,0.06172839506172839,160.49382716049382,0)" xlink:href="#N"/></g><g id="A"><use transform="matrix(0.04938271604938272,0,0,0.04938271604938272,0,0)" xlink:href="#aC"/><use transform="matrix(0.04938271604938272,0,0,0.04938271604938272,9.876543209876544,0)" xlink:href="#aK"/><use transform="matrix(0.04938271604938272,0,0,0.04938271604938272,20.69135802469136,0)" xlink:href="#aD"/><use transform="matrix(0.04938271604938272,0,0,0.04938271604938272,31.506172839506174,0)" xlink:href="#aD"/><use transform="matrix(0.04938271604938272,0,0,0.04938271604938272,42.320987654320994,0)" xlink:href="#at"/><use transform="matrix(0.04938271604938272,0,0,0.04938271604938272,52.19753086419754,0)" xlink:href="#av"/></g><g id="B"><use transform="matrix(0.04938271604938272,0,0,0.04938271604938272,0,0)" xlink:href="#ay"/><use transform="matrix(0.04938271604938272,0,0,0.04938271604938272,5.8765432098765435,0)" xlink:href="#aq"/><use transform="matrix(0.04938271604938272,0,0,0.04938271604938272,12.790123456790125,0)" xlink:href="#ar"/><use transform="matrix(0.04938271604938272,0,0,0.04938271604938272,22.666666666666668,0)" xlink:href="#as"/><use transform="matrix(0.04938271604938272,0,0,0.04938271604938272,33.48148148148148,0)" xlink:href="#at"/><use transform="matrix(0.04938271604938272,0,0,0.04938271604938272,43.358024691358025,0)" xlink:href="#au"/><use transform="matrix(0.04938271604938272,0,0,0.04938271604938272,49.23456790123457,0)" xlink:href="#av"/><use transform="matrix(0.04938271604938272,0,0,0.04938271604938272,59.111111111111114,0)" xlink:href="#aq"/></g><g id="C"><use transform="matrix(0.04938271604938272,0,0,0.04938271604938272,0,0)" xlink:href="#aP"/><use transform="matrix(0.04938271604938272,0,0,0.04938271604938272,12.790123456790125,0)" xlink:href="#aN"/><use transform="matrix(0.04938271604938272,0,0,0.04938271604938272,17.7283950617284,0)" xlink:href="#at"/><use transform="matrix(0.04938271604938272,0,0,0.04938271604938272,27.604938271604947,0)" xlink:href="#aQ"/><use transform="matrix(0.04938271604938272,0,0,0.04938271604938272,38.41975308641976,0)" xlink:href="#aT"/><use transform="matrix(0.04938271604938272,0,0,0.04938271604938272,43.35802469135803,0)" xlink:href="#ar"/><use transform="matrix(0.04938271604938272,0,0,0.04938271604938272,53.23456790123457,0)" xlink:href="#aA"/></g><g id="D"><use transform="matrix(0.04938271604938272,0,0,0.04938271604938272,0,0)" xlink:href="#aq"/><use transform="matrix(0.04938271604938272,0,0,0.04938271604938272,6.913580246913581,0)" xlink:href="#av"/><use transform="matrix(0.04938271604938272,0,0,0.04938271604938272,16.790123456790127,0)" xlink:href="#aC"/><use transform="matrix(0.04938271604938272,0,0,0.04938271604938272,26.666666666666668,0)" xlink:href="#aN"/><use transform="matrix(0.04938271604938272,0,0,0.04938271604938272,31.60493827160494,0)" xlink:href="#aQ"/><use transform="matrix(0.04938271604938272,0,0,0.04938271604938272,42.41975308641976,0)" xlink:href="#aN"/><use transform="matrix(0.04938271604938272,0,0,0.04938271604938272,47.35802469135803,0)" xlink:href="#av"/><use transform="matrix(0.04938271604938272,0,0,0.04938271604938272,57.23456790123457,0)" xlink:href="#as"/><use transform="matrix(0.04938271604938272,0,0,0.04938271604938272,68.0493827160494,0)" xlink:href="#ay"/><use transform="matrix(0.04938271604938272,0,0,0.04938271604938272,73.92592592592594,0)" xlink:href="#at"/></g><g id="E"><use transform="matrix(0.04938271604938272,0,0,0.04938271604938272,0,0)" xlink:href="#aU"/><use transform="matrix(0.04938271604938272,0,0,0.04938271604938272,15.80246913580247,0)" xlink:href="#av"/><use transform="matrix(0.04938271604938272,0,0,0.04938271604938272,25.679012345679016,0)" xlink:href="#as"/><use transform="matrix(0.04938271604938272,0,0,0.04938271604938272,36.49382716049383,0)" xlink:href="#aE"/></g><g id="F"><use transform="matrix(0.04938271604938272,0,0,0.04938271604938272,0,0)" xlink:href="#ar"/><use transform="matrix(0.04938271604938272,0,0,0.04938271604938272,9.876543209876544,0)" xlink:href="#as"/></g><g id="G"><use transform="matrix(0.04938271604938272,0,0,0.04938271604938272,0,0)" xlink:href="#aD"/><use transform="matrix(0.04938271604938272,0,0,0.04938271604938272,10.814814814814815,0)" xlink:href="#aQ"/><use transform="matrix(0.04938271604938272,0,0,0.04938271604938272,21.62962962962963,0)" xlink:href="#ay"/><use transform="matrix(0.04938271604938272,0,0,0.04938271604938272,27.506172839506174,0)" xlink:href="#aN"/><use transform="matrix(0.04938271604938272,0,0,0.04938271604938272,32.44444444444444,0)" xlink:href="#aD"/><use transform="matrix(0.04938271604938272,0,0,0.04938271604938272,43.25925925925926,0)" xlink:href="#as"/></g><path fill="#333" d="M24 0v-248h195v40H76v63h132v40H76v65h150V0H24" id="bf"/><g id="H"><use transform="matrix(0.04938271604938272,0,0,0.04938271604938272,0,0)" xlink:href="#bf"/><use transform="matrix(0.04938271604938272,0,0,0.04938271604938272,11.851851851851853,0)" xlink:href="#as"/><use transform="matrix(0.04938271604938272,0,0,0.04938271604938272,22.666666666666668,0)" xlink:href="#ay"/><use transform="matrix(0.04938271604938272,0,0,0.04938271604938272,28.543209876543212,0)" xlink:href="#av"/><use transform="matrix(0.04938271604938272,0,0,0.04938271604938272,38.41975308641976,0)" xlink:href="#aq"/></g><g id="I"><use transform="matrix(0.04938271604938272,0,0,0.04938271604938272,0,0)" xlink:href="#ar"/><use transform="matrix(0.04938271604938272,0,0,0.04938271604938272,9.876543209876544,0)" xlink:href="#aU"/><use transform="matrix(0.04938271604938272,0,0,0.04938271604938272,25.679012345679016,0)" xlink:href="#aD"/><use transform="matrix(0.04938271604938272,0,0,0.04938271604938272,36.49382716049383,0)" xlink:href="#aE"/><use transform="matrix(0.04938271604938272,0,0,0.04938271604938272,47.308641975308646,0)" xlink:href="#as"/><use transform="matrix(0.04938271604938272,0,0,0.04938271604938272,58.12345679012346,0)" xlink:href="#ay"/></g><g id="J"><use transform="matrix(0.04938271604938272,0,0,0.04938271604938272,0,0)" xlink:href="#ay"/><use transform="matrix(0.04938271604938272,0,0,0.04938271604938272,5.8765432098765435,0)" xlink:href="#aD"/></g><g id="K"><use transform="matrix(0.04938271604938272,0,0,0.04938271604938272,0,0)" xlink:href="#at"/><use transform="matrix(0.04938271604938272,0,0,0.04938271604938272,9.876543209876544,0)" xlink:href="#av"/><use transform="matrix(0.04938271604938272,0,0,0.04938271604938272,19.75308641975309,0)" xlink:href="#as"/><use transform="matrix(0.04938271604938272,0,0,0.04938271604938272,30.567901234567906,0)" xlink:href="#aR"/></g></defs></g></svg>